PathFileType	4	(x/y/z)	S05_M20_T01
DataRate	CameraRate	NumFrames	NumMarkers	Units	OrigDataRate	OrigDataStartFrame	OrigNumFrames
240	240	8	50	mm	240	474	541
Frame#	Time	Sternum			R.Acromium			L.Acromium			Top.Head			R.ASIS			L.ASIS			R.PSIS			L.PSIS			R.Great.Tro			L.Great.Tro			R.Iliac.Crest			L.Iliac.Crest			V.Sacral			R.Thigh.Upper.Post			R.Thigh.Lower.Ant			R.Thigh.Lower.Post			R.Thigh.Upper.Ant			R.Knee.Lat			R.Knee.Med			R.Shank.Upper.Post			R.Shank.Lower.Ant			R.Shank.Lower.Post			R.Shank.Upper.Ant			R.Ankle.Lat			R.Ankle.Med			R.Heel.Upper			R.Heel.Med			R.Heel.Lat			R.Toe.Lat			R.Toe.Med			R.Toe.Tip			L.Thigh.Upper.Post			L.Thigh.Lower.Ant			L.Thigh.Lower.Post			L.Thigh.Upper.Ant			L.Knee.Lat			L.Shank.Upper.Post			L.Shank.Lower.Ant			L.Shank.Lower.Post			L.Shank.Upper.Ant			L.Ankle.Lat			L.Ankle.Med			L.Heel.Upper			L.Heel.Med			L.Heel.Lat			L.Toe.Lat			L.Toe.Med			L.Toe.Tip			Cervical.Spine			Back			
		X1	Y1	Z1	X2	Y2	Z2	X3	Y3	Z3	X4	Y4	Z4	X5	Y5	Z5	X6	Y6	Z6	X7	Y7	Z7	X8	Y8	Z8	X9	Y9	Z9	X10	Y10	Z10	X11	Y11	Z11	X12	Y12	Z12	X13	Y13	Z13	X14	Y14	Z14	X15	Y15	Z15	X16	Y16	Z16	X17	Y17	Z17	X18	Y18	Z18	X19	Y19	Z19	X20	Y20	Z20	X21	Y21	Z21	X22	Y22	Z22	X23	Y23	Z23	X24	Y24	Z24	X25	Y25	Z25	X26	Y26	Z26	X27	Y27	Z27	X28	Y28	Z28	X29	Y29	Z29	X30	Y30	Z30	X31	Y31	Z31	X32	Y32	Z32	X33	Y33	Z33	X34	Y34	Z34	X35	Y35	Z35	X36	Y36	Z36	X37	Y37	Z37	X38	Y38	Z38	X39	Y39	Z39	X40	Y40	Z40	X41	Y41	Z41	X42	Y42	Z42	X43	Y43	Z43	X44	Y44	Z44	X45	Y45	Z45	X46	Y46	Z46	X47	Y47	Z47	X48	Y48	Z48	X49	Y49	Z49	X50	Y50	Z50	

474	1.9708	1711.9	1247.5	332.4	1626.8	1505.6	497.8	1618.5	1528.8	163.41	1612.3	1804.9	326.57	1656.2	988.17	452.01	1648.3	999.26	202.6	1452.1	1006.9	379.94	1449	1018.6	288.63	1587	905.64	522.67	1543.1	930.08	133.32	1569.4	1070.4	499.06	1555.3	1079.3	163.57	1437.5	976.95	344.16	1728.1	714.47	521	1799.1	670.79	460.86	1754.9	629.27	501.43	1767.5	753.16	479.7	1789.4	548.03	481.6	1802.3	533.73	345.02	1847	306.73	478.45	1934.2	285.41	490.35	1890	243.1	469.28	1891.1	350.17	498.24	1984.2	183.95	477.53	1994.3	221.53	393.75	1977.8	100.57	416.61	2010.2	85.92	389.33	2000	83.828	453.93	2124.4	184.77	521.88	2151.6	223.89	409.4	2180	278.51	460.94	1490.6	696.16	146.32	1553.2	607.39	171.65	1480.7	602.84	167.35	1570.3	694.4	148.57	1467	510.13	178.18	1354.3	330	184.41	1405.4	256.47	192.99	1335.9	262.32	207.65	1421.2	324.41	177.89	1332.4	121.84	220.95	1366.7	132.66	308.41	1265.2	74.439	276.82	1276	47.616	307.51	1265.2	48.807	246.69	1445.1	38.128	185.52	1472.9	44.96	304.72	1535.6	52.008	249.54	1563.4	1550.3	336.91	1444.5	1272.3	332.98
475	1.975	1717.3	1246.3	332.73	1632.4	1504.1	498.64	1623.7	1527.8	164.25	1617.6	1803.7	327.83	1661.9	986.82	452.02	1653.5	998.18	202.62	1457.7	1005.8	380.4	1454.4	1017.6	289.12	1592.7	904.34	522.77	1547.9	929.24	133.5	1575.2	1069.1	499.38	1560.6	1078.4	163.96	1443	975.95	344.62	1733.7	713.15	520.75	1804.4	669.33	460.49	1760.2	627.89	501.24	1772.9	751.75	479.3	1794.7	546.68	481.66	1807.3	532.15	345.12	1852.4	305.37	478.83	1939.6	284.11	490.63	1895.4	241.76	469.69	1896.5	348.84	498.5	1989.6	182.69	477.86	1999.6	220.18	394.03	1983.3	99.185	417.04	2015.6	84.54	389.75	2005.5	82.507	454.37	2129.8	183.69	522.04	2156.9	222.73	409.49	2185.3	277.43	460.96	1494.6	695.57	146.42	1556.9	606.51	171.55	1484.4	602.25	167.39	1574.3	693.47	148.5	1470.3	509.56	178.22	1356.4	330.18	184.5	1407	256.27	193.08	1337.5	262.65	207.77	1423.3	324.1	177.97	1332.9	122.22	221.1	1367.3	132.83	308.59	1265.5	74.861	277.1	1276.2	47.991	307.76	1265.3	49.245	246.95	1445.2	38.167	185.59	1473.1	44.85	304.76	1535.7	51.722	249.52	1568.8	1549.2	337.8	1449.8	1271.1	333.71
476	1.9792	1722.8	1245.1	333.07	1637.9	1502.6	499.48	1629	1526.8	165.11	1622.9	1802.5	329.11	1667.6	985.48	452.04	1658.7	997.1	202.66	1463.3	1004.7	380.86	1459.8	1016.6	289.6	1598.5	903.07	522.87	1552.8	928.39	133.69	1581	1067.7	499.7	1565.8	1077.5	164.35	1448.4	974.93	345.08	1739.3	711.92	520.54	1809.9	667.97	460.15	1765.8	626.62	501.08	1778.5	750.43	478.91	1800.1	545.4	481.76	1812.4	530.63	345.28	1857.6	303.98	479.21	1944.8	282.67	490.87	1900.6	240.35	470.05	1901.8	347.42	498.74	1994.7	181.22	478.12	2004.5	218.62	394.25	1988.2	97.618	417.39	2020.6	82.933	390.1	2010.5	80.974	454.74	2134.9	182.22	522.11	2161.9	221.15	409.49	2190.3	275.88	460.87	1498.7	694.98	146.53	1560.7	605.63	171.45	1488.2	601.66	167.44	1578.4	692.54	148.43	1473.6	508.99	178.27	1358.5	330.37	184.59	1408.6	256.09	193.18	1339.1	263	207.89	1425.4	323.8	178.07	1333.5	122.62	221.24	1367.9	133.04	308.76	1265.7	75.337	277.38	1276.4	48.417	308.01	1265.5	49.732	247.2	1445.2	38.207	185.66	1473.3	44.745	304.79	1535.9	51.433	249.49	1574.3	1548	338.71	1455.3	1269.9	334.45
477	1.9833	1728.2	1243.8	333.42	1643.5	1501.1	500.34	1634.4	1525.7	165.97	1628.2	1801.3	330.4	1673.3	984.15	452.07	1663.9	996.01	202.71	1468.9	1003.6	381.32	1465.2	1015.6	290.09	1604.3	901.83	522.99	1557.7	927.52	133.89	1586.9	1066.4	500.03	1571.1	1076.6	164.74	1453.9	973.9	345.53	1745	710.79	520.35	1815.4	666.72	459.83	1771.4	625.45	500.96	1784.1	749.22	478.54	1805.6	544.16	481.89	1817.6	529.16	345.51	1862.6	302.57	479.58	1949.8	281.08	491.06	1905.4	238.85	470.37	1907	345.91	498.97	1999.4	179.56	478.32	2009.2	216.86	394.4	1992.6	95.87	417.67	2024.9	81.1	390.37	2015	79.232	455.04	2139.6	180.38	522.08	2166.5	219.15	409.4	2195	273.88	460.69	1502.8	694.37	146.65	1564.5	604.75	171.35	1491.9	601.06	167.51	1582.5	691.62	148.37	1477	508.41	178.33	1360.7	330.58	184.69	1410.2	255.92	193.27	1340.8	263.37	208.01	1427.5	323.5	178.17	1334	123.05	221.39	1368.6	133.26	308.94	1265.9	75.872	277.65	1276.6	48.898	308.25	1265.6	50.275	247.45	1445.3	38.247	185.73	1473.4	44.645	304.83	1536.1	51.141	249.47	1579.8	1546.8	339.64	1460.7	1268.7	335.19
478	1.9875	1733.7	1242.6	333.79	1649.1	1499.6	501.22	1639.7	1524.7	166.86	1633.5	1800.1	331.7	1679.1	982.85	452.12	1669.1	994.92	202.77	1474.5	1002.5	381.77	1470.6	1014.6	290.58	1610.2	900.62	523.13	1562.6	926.65	134.11	1592.7	1065.1	500.37	1576.4	1075.6	165.13	1459.5	972.87	345.99	1750.8	709.73	520.19	1821	665.56	459.54	1777.2	624.36	500.88	1789.8	748.09	478.2	1811.3	542.98	482.06	1822.9	527.75	345.81	1867.4	301.14	479.94	1954.5	279.34	491.2	1909.9	237.27	470.65	1912	344.3	499.17	2003.6	177.7	478.46	2013.4	214.89	394.49	1996.5	93.943	417.89	2028.8	79.048	390.57	2018.9	77.285	455.27	2143.9	178.18	521.95	2170.7	216.76	409.21	2199.4	271.44	460.4	1506.8	693.77	146.78	1568.3	603.87	171.27	1495.7	600.45	167.59	1586.5	690.69	148.31	1480.4	507.84	178.4	1362.9	330.8	184.8	1411.8	255.77	193.38	1342.5	263.77	208.14	1429.7	323.22	178.27	1334.6	123.52	221.53	1369.3	133.51	309.1	1266.2	76.469	277.91	1276.8	49.44	308.48	1265.8	50.876	247.7	1445.4	38.287	185.8	1473.6	44.551	304.86	1536.2	50.845	249.44	1585.4	1545.6	340.59	1466.2	1267.5	335.93
479	1.9917	1739.2	1241.3	334.18	1654.8	1498.1	502.1	1645.2	1523.7	167.75	1638.8	1798.9	333.01	1684.9	981.55	452.18	1674.3	993.82	202.84	1480.1	1001.4	382.23	1476.1	1013.6	291.07	1616	899.45	523.28	1567.5	925.77	134.35	1598.5	1063.8	500.72	1581.7	1074.7	165.53	1465	971.84	346.46	1756.8	708.76	520.07	1826.8	664.48	459.27	1783.1	623.35	500.83	1795.6	747.05	477.88	1817	541.83	482.25	1828.3	526.38	346.16	1872	299.67	480.29	1959	277.45	491.3	1914.2	235.61	470.88	1916.8	342.6	499.35	2007.6	175.66	478.53	2017.3	212.73	394.51	1999.9	91.846	418.04	2032.2	76.785	390.7	2022.3	75.146	455.43	2147.8	175.64	521.72	2174.6	213.98	408.92	2203.6	268.57	460.01	1511	693.16	146.93	1572.1	602.99	171.19	1499.5	599.85	167.68	1590.7	689.77	148.27	1483.9	507.27	178.47	1365.1	331.05	184.91	1413.4	255.63	193.48	1344.3	264.19	208.27	1431.8	322.95	178.37	1335.2	124.02	221.67	1370	133.8	309.27	1266.5	77.134	278.16	1277.1	50.049	308.71	1265.9	51.541	247.93	1445.4	38.326	185.87	1473.8	44.465	304.89	1536.4	50.547	249.41	1590.9	1544.5	341.56	1471.7	1266.4	336.68
480	1.9958	1744.7	1240.1	334.58	1660.5	1496.6	503	1650.6	1522.6	168.66	1644.2	1797.7	334.33	1690.7	980.28	452.25	1679.6	992.73	202.93	1485.8	1000.3	382.7	1481.6	1012.6	291.57	1621.9	898.31	523.45	1572.5	924.88	134.6	1604.4	1062.5	501.07	1587	1073.7	165.93	1470.6	970.79	346.94	1762.8	707.85	519.98	1832.6	663.48	459.04	1789	622.41	500.82	1801.4	746.07	477.6	1822.8	540.71	482.47	1833.8	525.06	346.56	1876.4	298.18	480.64	1963.3	275.43	491.35	1918.2	233.86	471.07	1921.6	340.81	499.52	2011.1	173.44	478.55	2020.9	210.37	394.48	2002.8	89.592	418.13	2035	74.326	390.76	2025.3	72.826	455.53	2151.3	172.76	521.4	2178.1	210.84	408.55	2207.5	265.31	459.51	1515.1	692.55	147.1	1576	602.12	171.11	1503.4	599.24	167.78	1594.8	688.85	148.24	1487.4	506.71	178.55	1367.3	331.32	185.02	1415.1	255.52	193.59	1346	264.64	208.4	1434	322.69	178.48	1335.8	124.56	221.8	1370.7	134.11	309.42	1266.7	77.87	278.39	1277.3	50.729	308.92	1266.1	52.274	248.14	1445.5	38.363	185.94	1474	44.387	304.92	1536.6	50.247	249.39	1596.5	1543.3	342.54	1477.2	1265.2	337.42
481	2	1750.3	1238.9	335	1666.2	1495.2	503.92	1656.1	1521.6	169.59	1649.5	1796.5	335.66	1696.5	979.03	452.33	1684.9	991.64	203.03	1491.5	999.24	383.18	1487.1	1011.6	292.08	1627.9	897.2	523.64	1577.4	923.99	134.88	1610.2	1061.3	501.43	1592.4	1072.7	166.33	1476.1	969.75	347.42	1768.9	706.99	519.92	1838.5	662.53	458.83	1795.1	621.52	500.84	1807.4	745.15	477.34	1828.6	539.62	482.7	1839.3	523.76	347	1880.6	296.65	480.98	1967.4	273.29	491.35	1922	232.05	471.23	1926.2	338.93	499.65	2014.3	171.06	478.51	2024.2	207.84	394.38	2005.3	87.195	418.17	2037.4	71.688	390.77	2027.8	70.345	455.57	2154.5	169.59	520.99	2181.3	207.35	408.09	2211.1	261.67	458.92	1519.3	691.94	147.28	1579.9	601.26	171.05	1507.3	598.65	167.9	1599	687.95	148.21	1491	506.15	178.64	1369.6	331.61	185.13	1416.8	255.44	193.69	1347.8	265.13	208.53	1436.3	322.46	178.58	1336.5	125.13	221.91	1371.5	134.46	309.56	1267	78.681	278.6	1277.5	51.485	309.11	1266.3	53.079	248.34	1445.6	38.398	186.01	1474.2	44.318	304.94	1536.7	49.945	249.37	1602.1	1542.2	343.53	1482.7	1264	338.16
